<?xml version="1.0" encoding="utf-8"?>
<!-- Generator: Adobe Illustrator 27.5.0, SVG Export Plug-In . SVG Version: 6.00 Build 0)  -->
<svg version="1.1" xmlns="http://www.w3.org/2000/svg" xmlns:xlink="http://www.w3.org/1999/xlink" x="0px" y="0px"
	 viewBox="0 0 3710 3710" style="enable-background:new 0 0 3710 3710;" xml:space="preserve">
<g id="Background">
	<g>
		<g>
			<rect style="fill:#FFFFFF;" width="3710" height="3710"/>
		</g>
	</g>
</g>
<g id="Illustration">
	<g>
		<path style="fill:#F4F7FA;" d="M3323.83,2047.651c-29.748-210.987-48.524-428.777-52.094-641.993
			c-1.437-85.814,9.041-175.047-12.835-259.001c-53.897-206.844-218.123-380.643-405.767-468.639
			c-183.984-86.28-391.17-129.97-588.726-171.092c-0.018-0.003-1408.673-293.217-1515.794,461.553
			c-107.123,754.774-203.534,651.604-294.59,923.106c-91.054,271.501-32.137,1552.99,1622.919,1324.928
			c406.451-56.008,809.177-171.815,1077.353-502.605C3300.118,2534.038,3356.224,2277.419,3323.83,2047.651z"/>
		<g>
			<g>
				<path style="fill:#BFC8D6;" d="M2437.227,1248.514C2285.724,1097,2083.997,1013.56,1869.2,1013.56
					c-214.797,0-407.059,64.51-558.563,216.021c-31.379,31.372-40.844,101.169-9.463,132.541
					c31.349,31.372,82.246,31.368,113.595-0.004c121.174-121.162,282.546-187.892,454.431-187.892s333.257,66.73,454.431,187.892
					c15.673,15.69,36.244,23.531,56.797,23.531c13.14,0,26.273-3.244,38.145-9.656l0.009,0.021c0,0,56.581-25.755,60.657-90.29
					c-7.251,2.452-13.65,5.125-19.417,7.937C2457.411,1277.145,2449.94,1261.224,2437.227,1248.514z"/>
				<path style="fill:#BFC8D6;" d="M2210.02,1475.726c-187.935-187.92-482.65-209.139-670.585-21.22
					c-31.381,31.372-42.434,103.455-11.053,134.827c31.349,31.38,82.248,31.368,113.595,0.004
					c125.301-125.285,329.147-125.285,454.448,0c15.674,15.686,36.244,23.527,56.798,23.527c19.643,0,39.25-7.249,54.635-21.576
					c0.008,0.027,0.015,0.053,0.025,0.079c0,0,39.291-30.992,44.945-86.239c-7.522,9.481-13.935,17.6-19.402,24.668
					C2232.76,1510.16,2225.014,1490.716,2210.02,1475.726z"/>
				<path style="fill:#BFC8D6;" d="M2687.773,1073.645c-1.054-19.047-8.768-37.795-23.322-52.346
					C2452.352,809.193,2169.932,692.38,1869.2,692.38c-300.7,0-569.602,92.335-781.685,304.425
					c-31.379,31.372-44.945,106.729-13.566,138.097c31.349,31.38,82.248,31.368,113.597,0.004
					c181.769-181.761,423.85-281.86,681.653-281.86c257.818,0,499.901,100.099,681.653,281.856
					c15.675,15.69,36.244,23.531,56.799,23.531c11.885,0,23.744-2.709,34.691-7.954l0.017,0.082c0,0,0.668-0.239,1.867-0.76
					c9.297-4.043,50.566-25.076,60.767-83.563C2698.888,1068.948,2693.151,1071.408,2687.773,1073.645z"/>
				<path style="fill:#BFC8D6;" d="M2029.543,1806.773c-2.343-39.241-18.717-75.811-46.731-103.825
					c-30.344-30.348-70.7-47.066-113.612-47.066s-79.026,3.202-109.355,33.535c-30.344,30.345-51.311,84.211-51.311,127.131
					c0,42.92,16.71,83.271,47.054,113.604c30.346,30.349,71.141,47.066,114.053,47.066c40.484,0,76.646-14.894,108.785-42.051v0.017
					c0,0,73.705-58.132,71.106-152.552C2042.37,1790.205,2035.436,1798.344,2029.543,1806.773z"/>
			</g>
			<g>
				<g>
					<path style="fill:#D8DEE8;" d="M2626.924,1127.599c-20.554,0-41.124-7.841-56.798-23.531
						c-181.754-181.757-423.835-281.856-681.654-281.856c-257.803,0-499.885,100.099-681.654,281.86
						c-31.349,31.364-82.247,31.376-113.596-0.004c-31.38-31.368-31.38-82.235,0-113.608
						c212.082-212.09,494.55-328.914,795.25-328.914c0.016,0-0.016,0,0,0c300.731,0,583.152,116.812,795.25,328.918
						c31.38,31.372,31.38,82.235,0,113.608C2668.048,1119.754,2647.478,1127.599,2626.924,1127.599z"/>
				</g>
				<g>
					<path style="fill:#D8DEE8;" d="M2399.701,1354.814c-20.554,0-41.124-7.841-56.798-23.531
						c-121.174-121.162-282.546-187.892-454.431-187.892c-171.885,0-333.257,66.73-454.431,187.892
						c-31.349,31.372-82.247,31.376-113.596,0.004c-31.38-31.372-31.38-82.235,0-113.608
						c151.503-151.511,353.23-234.955,568.027-234.955s416.524,83.44,568.027,234.955c31.38,31.372,31.38,82.235,0,113.608
						C2440.825,1346.969,2420.255,1354.814,2399.701,1354.814z"/>
				</g>
				<g>
					<path style="fill:#D8DEE8;" d="M2172.494,1582.03c-20.554,0-41.124-7.841-56.798-23.527
						c-125.301-125.285-329.146-125.285-454.446,0c-31.349,31.364-82.247,31.376-113.596-0.004
						c-31.38-31.372-31.38-82.235,0-113.608c187.935-187.92,493.703-187.92,681.638,0c31.38,31.372,31.38,82.235,0,113.608
						C2213.617,1574.184,2193.048,1582.03,2172.494,1582.03z"/>
				</g>
				<g>
					<path style="fill:#D8DEE8;" d="M1888.472,1946.384c-42.912,0-83.267-16.718-113.612-47.066
						c-30.344-30.333-47.054-70.684-47.054-113.604c0-42.92,16.726-83.271,47.07-113.616c30.329-30.333,70.684-47.05,113.596-47.05
						c42.912,0,83.267,16.718,113.612,47.066c30.329,30.329,47.054,70.68,47.054,113.6c0,42.92-16.71,83.271-47.07,113.616
						C1971.739,1929.666,1931.385,1946.384,1888.472,1946.384z"/>
				</g>
			</g>
		</g>
		<g>
			<g>
				<g>
					
						<linearGradient id="SVGID_1_" gradientUnits="userSpaceOnUse" x1="2198.6929" y1="3030.4873" x2="2257.2385" y2="3030.4873" gradientTransform="matrix(-0.9927 -0.1204 -0.1204 0.9927 3932.8096 113.4265)">
						<stop  offset="0" style="stop-color:#AA80F9"/>
						<stop  offset="0.9964" style="stop-color:#6165D7"/>
					</linearGradient>
					<path style="fill:url(#SVGID_1_);" d="M1341.432,2828.095c-4.377,5.567-9.809,13.95-13.326,25.134
						c-1.541,4.901-2.439,9.463-2.952,13.478c2.117,5.492,13.383,25.277,32.772,34.018c11.995,5.407,34.851-0.518,15.112-20.306
						c-19.739-19.787-22.383-24.061-7.034-59.36c3.949-9.082,4.069-12.712,2.734-13.725
						C1365.619,2804.967,1352.325,2817.213,1341.432,2828.095z"/>
					
						<linearGradient id="SVGID_00000011730465183611616620000004136575473824637616_" gradientUnits="userSpaceOnUse" x1="2310.4773" y1="3047.5117" x2="2369.0229" y2="3047.5117" gradientTransform="matrix(-0.9927 -0.1204 -0.1204 0.9927 3932.8096 113.4265)">
						<stop  offset="0" style="stop-color:#AA80F9"/>
						<stop  offset="0.9964" style="stop-color:#6165D7"/>
					</linearGradient>
					<path style="fill:url(#SVGID_00000011730465183611616620000004136575473824637616_);" d="M1228.414,2831.536
						c-4.377,5.567-9.809,13.95-13.326,25.134c-1.541,4.901-2.439,9.463-2.952,13.478c2.117,5.492,13.383,25.277,32.772,34.018
						c11.994,5.407,34.851-0.518,15.112-20.305c-19.739-19.787-22.383-24.061-7.034-59.36c3.949-9.082,4.069-12.712,2.734-13.725
						C1252.601,2808.408,1239.307,2820.655,1228.414,2831.536z"/>
					
						<linearGradient id="SVGID_00000116952349739692836140000001984833179458427787_" gradientUnits="userSpaceOnUse" x1="2102.9565" y1="2609.5044" x2="2458.8794" y2="2609.5044" gradientTransform="matrix(-0.9927 -0.1204 -0.1204 0.9927 3932.8096 113.4265)">
						<stop  offset="0" style="stop-color:#444B8C"/>
						<stop  offset="0.9964" style="stop-color:#26264F"/>
					</linearGradient>
					<path style="fill:url(#SVGID_00000116952349739692836140000001984833179458427787_);" d="M1242.285,2049.785
						c-12.714,46.66-25.427,93.321-38.141,139.981c12.418,46.675,23.225,97.247,31.202,151.482
						c28.811,195.91,10.071,367.413-17.705,496.88c9.594,6.222,19.189,12.442,28.783,18.665
						c35.224-66.51,80.65-166.21,111.058-293.478c35.926-150.358,34.587-270.952,41.638-270.644
						c6.758,0.295,14.264,111.348,1.388,235.946c-13.611,131.712-45.798,237.914-72.672,310.244
						c12.376,3.663,24.752,7.327,37.128,10.99c57.647-90.517,120.505-215.851,154.905-372.587
						c23.89-108.845,53.775-253.635-4.164-412.211c-5.786-15.835-27.969-51.954-31.922-60.721
						C1397.732,2011.733,1328.336,2042.383,1242.285,2049.785z"/>
					
						<linearGradient id="SVGID_00000072992478708860825910000009562306730191547555_" gradientUnits="userSpaceOnUse" x1="2147.3535" y1="2423.3835" x2="2491.134" y2="2423.3835" gradientTransform="matrix(-1 0 0 1 3695.2781 0)">
						<stop  offset="0" style="stop-color:#444B8C"/>
						<stop  offset="0.9964" style="stop-color:#26264F"/>
					</linearGradient>
					<path style="opacity:0.25;fill:url(#SVGID_00000072992478708860825910000009562306730191547555_);" d="M1235.345,2341.249
						c-7.976-54.236-18.783-104.808-31.201-151.483c12.714-46.66,25.427-93.321,38.141-139.981
						c86.051-7.402,155.447-38.051,241.498-45.453c3.953,8.767,26.136,44.886,31.922,60.721
						c19.531,53.457,29.055,105.337,32.22,154.81c-163.06-18.698-213.825,10.4-230.078,40.386
						c-25.873,47.736,31.855,104.843-0.884,203.484c-9.846,29.666-21.403,43.589-26.518,81.499
						c-6.713,49.75,9.074,56.276,6.364,107.31c-2.965,55.837-24.641,100.326-42.429,136.834
						c-11.059,22.697-22.016,40.694-30.096,53.06c-2.214-1.436-4.429-2.872-6.643-4.309
						C1245.416,2708.661,1264.157,2537.158,1235.345,2341.249z"/>
				</g>
				
					<linearGradient id="SVGID_00000032622131631502364830000013391715338218546075_" gradientUnits="userSpaceOnUse" x1="2852.1318" y1="1810.1367" x2="2183.8718" y2="1457.9746" gradientTransform="matrix(-1 0 0 1 3695.2781 0)">
					<stop  offset="0" style="stop-color:#311944"/>
					<stop  offset="1" style="stop-color:#6B3976"/>
				</linearGradient>
				<path style="fill:url(#SVGID_00000032622131631502364830000013391715338218546075_);" d="M1380.488,1398.292
					c-5.959,6.453,0.844,16.643-1.143,50.968c-0.909,15.701-3.209,28.706-5.227,37.904c-1.169,8.389-2.454,16.148-3.826,22.977
					c-1.006,5.01-1.932,8.912-3.095,13.046c-2.155,7.668-4.888,15.21-8.119,22.419c-0.214,0.477-0.025,1.031,0.422,1.282
					c0.026,0.015,0.054,0.028,0.082,0.04c0.505,0.228,1.097,0.001,1.323-0.504c3.271-7.297,6.037-14.932,8.221-22.693
					c1.177-4.186,2.114-8.132,3.131-13.196c0.723-3.599,1.42-7.471,2.091-11.533c0.002,10.884-1.001,22.804-6.476,38.292
					c-16.615,47.007,17.517,82.618,46.878,86.95c33.86,4.996,59.709-19.568,67.753-27.649
					c32.422-32.572,43.958-89.935,21.32-135.107C1474.167,1402.312,1395.093,1382.478,1380.488,1398.292z"/>
				
					<linearGradient id="SVGID_00000047750600860729852510000002333295764897024144_" gradientUnits="userSpaceOnUse" x1="2844.5046" y1="1824.6097" x2="2176.2468" y2="1472.4487" gradientTransform="matrix(-1 0 0 1 3695.2781 0)">
					<stop  offset="0" style="stop-color:#311944"/>
					<stop  offset="1" style="stop-color:#6B3976"/>
				</linearGradient>
				<path style="fill:url(#SVGID_00000047750600860729852510000002333295764897024144_);" d="M1461.687,1453.618
					c-0.897-5.54-5.202-28.193-23.886-44.053c-35.45-30.09-98.786-15.456-137.044,11.688c-40.033,28.403-27.08,52.263-66.857,84.285
					c-43.203,34.78-68.939,14.969-127.28,46.844c-22.948,12.538-84.793,46.328-95.08,107.969
					c-8.889,53.265,23.463,110.88,67.71,136.401c75.749,43.69,181.773-9.331,234.735-62.704
					c50.796-51.191,21.844-68.01,97.014-169.253C1438.177,1528.189,1468.389,1495.013,1461.687,1453.618z"/>
				<g>
					
						<linearGradient id="SVGID_00000174575585908312850800000009404796695057169031_" gradientUnits="userSpaceOnUse" x1="1298.4871" y1="1696.1787" x2="1404.587" y2="1696.1787" gradientTransform="matrix(-0.9994 0.0335 0.0335 0.9994 3104.1006 152.1848)">
						<stop  offset="0" style="stop-color:#FFC444"/>
						<stop  offset="0.9964" style="stop-color:#F36F56"/>
					</linearGradient>
					<path style="fill:url(#SVGID_00000174575585908312850800000009404796695057169031_);" d="M1810.075,1876.297l9.708,1.107
						c0,0,17.149-1.292,27.226,0.161c10.078,1.453,15.97,6.269,16.318,16.645c0.348,10.375-12.269,12.076-23.18,13.672
						c-6.639,0.971-15.911-4.347-23.005-9.305c-4.988-3.486-17.533-6.34-17.533-6.34L1810.075,1876.297z"/>
					
						<linearGradient id="SVGID_00000147190931518696958680000015987458255503184319_" gradientUnits="userSpaceOnUse" x1="1680.6182" y1="1692.4562" x2="1934.8605" y2="1831.4664" gradientTransform="matrix(-0.9978 -0.0657 -0.0657 0.9978 3612.1487 91.664)">
						<stop  offset="0" style="stop-color:#AA80F9"/>
						<stop  offset="0.9964" style="stop-color:#6165D7"/>
					</linearGradient>
					<path style="fill:url(#SVGID_00000147190931518696958680000015987458255503184319_);" d="M1519.459,1633.971
						c51.089,66.954,31.047,102.755,66.033,158.044c34.681,54.806,60.003-13.274,151.551,24.44
						c34.764,14.321,61.455,30.637,78.8,42.383c-0.414,3.771-0.999,7.815-1.815,12.084c-0.554,2.896-1.45,7.12-3.205,13.43
						c-1.688,6.07-4.522,15.327-9.092,27.113c-27.216,14.984-75.552,35.592-130.922,24.414c-10.082-2.035-17.112-3.87-27.501-8.123
						c-34.897-14.285-89.702-22.76-143.129-95.539c-40.346-54.962-46.348-59.031-53.93-85.217
						c-18.742-64.73,2.809-142.36,30.616-146.989C1491.37,1597.596,1505.308,1615.425,1519.459,1633.971z"/>
				</g>
				
					<linearGradient id="SVGID_00000038376112062932158410000005403458415738979464_" gradientUnits="userSpaceOnUse" x1="2369.6533" y1="1614.6281" x2="2951.0649" y2="1983.0468" gradientTransform="matrix(-0.9893 0.146 0.146 0.9893 3584.98 -128.4262)">
					<stop  offset="0" style="stop-color:#AA80F9"/>
					<stop  offset="0.9964" style="stop-color:#6165D7"/>
				</linearGradient>
				<path style="fill:url(#SVGID_00000038376112062932158410000005403458415738979464_);" d="M1502.72,1615.915
					c25.969,32.375,30.122,68.496,30.773,84.515c2.024,49.83-21.407,87.874-27.026,97.924
					c-26.544,47.481-28.813,146.256,74.041,370.118c-12.878,8.653-61.33,77.562-77.027,40.483
					c-21.401-50.552-106.106-399.414-32.101,11.273c0.975,5.412-10.667,3.137-16.216,4.578
					c-39.786,10.333-86.866,15.979-139.066,9.912c-81.814-9.509-141.357-43.741-172.508-65.008
					c27.782-49.852,58.524-118.032,77.426-202.688c36.059-161.498,9.936-297.462-10.424-371.429
					c27.094-14.858,112.418-57.176,205.47-31.001C1439.247,1571.114,1475.367,1581.813,1502.72,1615.915z"/>
				
					<linearGradient id="SVGID_00000160886624629889580510000012467601105586976163_" gradientUnits="userSpaceOnUse" x1="2256.1365" y1="1779.4967" x2="2807.2207" y2="2128.698" gradientTransform="matrix(-1 0 0 1 3695.2781 0)">
					<stop  offset="0" style="stop-color:#AA80F9"/>
					<stop  offset="0.9964" style="stop-color:#6165D7"/>
				</linearGradient>
				<path style="opacity:0.3;fill:url(#SVGID_00000160886624629889580510000012467601105586976163_);" d="M1221.017,1967.022
					c36.059-161.498,9.937-297.463-10.424-371.43c27.094-14.858,112.418-57.176,205.47-31.001
					c23.185,6.522,59.305,17.223,86.658,51.323c20.677,25.778,27.507,53.895,29.767,72.385c-0.695-0.193-1.654-0.451-2.8-0.732
					c-57.515-14.105-129.771,25.854-157.411,67.875c-46.127,70.124,36.044,139.839,21.662,257.055
					c-7.774,63.365-43.147,135.577-136.19,210.668c-52.076-14.654-90.986-37.635-114.158-53.455
					C1171.372,2119.858,1202.115,2051.678,1221.017,1967.022z"/>
				
					<linearGradient id="SVGID_00000083078011132865525510000007223228418263685794_" gradientUnits="userSpaceOnUse" x1="849.3813" y1="1737.8767" x2="860.0408" y2="1453.9406" gradientTransform="matrix(0.9962 0.0867 -0.0867 0.9962 693.0823 -81.7878)">
					<stop  offset="0" style="stop-color:#FFC444"/>
					<stop  offset="0.9964" style="stop-color:#F36F56"/>
				</linearGradient>
				<path style="fill:url(#SVGID_00000083078011132865525510000007223228418263685794_);" d="M1400.002,1503.501
					c6.564,17.734,11.396,39.566,0.776,52.774c-6.47,8.047-16.198,11.895-25.782,15.479c-22.649,8.468-32.195,3.087-37.119,9.138
					c-10.839,13.319,10.009,70.592,52.741,79.805c42.526,9.169,86.311-33.663,81.887-54.129
					c-3.991-18.467-46.917-17.255-52.148-40.612c-2.634-11.759,5.651-23.656,12.659-31.567l5.02,0.968L1400.002,1503.501z"/>
				
					<linearGradient id="SVGID_00000052817084976754882190000013132032340871021238_" gradientUnits="userSpaceOnUse" x1="2304.2361" y1="1683.6046" x2="2312.9656" y2="1451.0769" gradientTransform="matrix(-1 0 0 1 3695.2781 0)">
					<stop  offset="0" style="stop-color:#FFC444"/>
					<stop  offset="0.9964" style="stop-color:#F36F56"/>
				</linearGradient>
				<path style="opacity:0.4;fill:url(#SVGID_00000052817084976754882190000013132032340871021238_);" d="M1337.878,1580.892
					c4.924-6.051,14.471-0.671,37.12-9.139c9.584-3.582,19.312-7.432,25.781-15.479c10.62-13.207,5.788-35.039-0.776-52.773
					l38.035,31.856l-5.02-0.967c-5.563,6.279-11.838,15.076-12.911,24.316c-3.186,1.747-5.93,3.743-7.936,5.749
					c4.38,12.754,5.205,23.457,5.235,30.327c0.047,10.713,0.081,18.669-5.235,25.633c-5.799,7.596-14.566,9.561-22.232,11.278
					c-17.032,3.816-32.223,0.388-42.077-3.079C1335.701,1609.708,1331.792,1588.371,1337.878,1580.892z"/>
				
					<linearGradient id="SVGID_00000152225776724473233480000006075360019111323819_" gradientUnits="userSpaceOnUse" x1="597.9026" y1="1462.4404" x2="595.028" y2="1694.0524" gradientTransform="matrix(1 -0.0041 0.0043 1.043 826.5022 -42.6284)">
					<stop  offset="0" style="stop-color:#FFC444"/>
					<stop  offset="0.9964" style="stop-color:#F36F56"/>
				</linearGradient>
				<path style="fill:url(#SVGID_00000152225776724473233480000006075360019111323819_);" d="M1410.882,1521.636
					c0,0,2.161,21.72,23.669,21.833c26.5,0.139,29.441-69.787,22.997-73.782c-7.473-4.634-14.01,6.714-31.403,2.757
					c-7.324-1.666-13.654-11.085-17.366-0.934c-4.223,11.549-0.656,31.992-0.656,31.992s-6.297-5.191-7.263,1.056
					C1399.596,1512.733,1405.73,1517.841,1410.882,1521.636z"/>
				
					<linearGradient id="SVGID_00000158002909583403083170000009229787507276377519_" gradientUnits="userSpaceOnUse" x1="2866.8374" y1="1782.2312" x2="2198.5803" y2="1430.0706" gradientTransform="matrix(-1 0 0 1 3695.2781 0)">
					<stop  offset="0" style="stop-color:#311944"/>
					<stop  offset="1" style="stop-color:#6B3976"/>
				</linearGradient>
				<path style="fill:url(#SVGID_00000158002909583403083170000009229787507276377519_);" d="M1452.802,1445.655
					c8.41,8.576,13.048,25.216,7.219,33.58c-8.374,12.016-33.141-0.53-43.27,14.169c-4.441,6.444-4.183,15.389-6.485,15.243
					c-1.907-0.121-3.034-6.318-4.132-11.417c-6.055-28.11-13.061-31.266-10.926-39.314
					C1399.547,1441.558,1435.533,1428.045,1452.802,1445.655z"/>
				<g>
					
						<linearGradient id="SVGID_00000067198560731020632090000001537844729234250628_" gradientUnits="userSpaceOnUse" x1="1143.8326" y1="1076.4414" x2="1260.1616" y2="1076.4414" gradientTransform="matrix(-0.9721 0.2345 0.2345 0.9721 2455.5251 609.0731)">
						<stop  offset="0" style="stop-color:#FFC444"/>
						<stop  offset="0.9964" style="stop-color:#F36F56"/>
					</linearGradient>
					<path style="fill:url(#SVGID_00000067198560731020632090000001537844729234250628_);" d="M1535.747,1919.844l10.67-0.959
						c0,0,18.13-5.181,29.274-5.85s18.537,3.2,21.206,14.265c2.669,11.065-10.504,15.682-21.869,19.81
						c-6.915,2.511-18.048-1.149-26.764-4.904c-6.128-2.64-20.231-2.93-20.231-2.93L1535.747,1919.844z"/>
					
						<linearGradient id="SVGID_00000027570377112558584260000001757747277127513790_" gradientUnits="userSpaceOnUse" x1="2095.8237" y1="798.827" x2="2281.5164" y2="1011.194" gradientTransform="matrix(-0.7931 0.6118 0.6652 0.9123 2488.2578 -320.503)">
						<stop  offset="0" style="stop-color:#AA80F9"/>
						<stop  offset="0.9964" style="stop-color:#6165D7"/>
					</linearGradient>
					<path style="fill:url(#SVGID_00000027570377112558584260000001757747277127513790_);" d="M1280.446,1587.713
						c-43.502-10.772-106.685,119.603-115.18,245.958c-2.697,40.1,52.215,89.055,103.401,115.753
						c59.759,31.171,118.279,29.418,147.57,28.542c51.63-1.545,91.071-14.412,114.441-23.957c3.039-6.735,6.088-14.931,8.389-24.487
						c2.105-8.748,3.141-16.791,3.591-23.755c-18.502-18.289-48.339-43.545-90.716-62.278
						c-26.875-11.881-42.453-13.916-81.586-24.684c-35.61-9.799-54.686-8.869-65.95-6.823c-5.287,0.96-14.53,3.102-22.746-1.685
						c-10.922-6.363-13.309-21.057-14.128-26.097c-8.097-49.842,56.968-100.038,44.922-154.615
						C1308.918,1613.576,1297.103,1591.838,1280.446,1587.713z"/>
				</g>
				
					<linearGradient id="SVGID_00000088104909311867670980000015057392004416223666_" gradientUnits="userSpaceOnUse" x1="2852.8027" y1="1808.8625" x2="2184.543" y2="1456.7004" gradientTransform="matrix(-1 0 0 1 3695.2781 0)">
					<stop  offset="0" style="stop-color:#311944"/>
					<stop  offset="1" style="stop-color:#6B3976"/>
				</linearGradient>
				<path style="fill:url(#SVGID_00000088104909311867670980000015057392004416223666_);" d="M1408.779,1471.509
					c5.864,6.408-6.999,27.629-32.964,69.81c-15.981,25.962-23.972,38.942-29.108,44.554
					c-27.656,30.219-74.313,53.495-121.501,50.872c-32.382-1.8-37.123-14.246-63.666-9.818
					c-40.042,6.68-62.906,40.618-64.721,38.832c-2.006-1.974,23.863-45.413,75.787-81.638c42.486-29.64,54.039-20.7,120.811-61.75
					c4.845-2.978,25.351-15.669,54.137-29.949C1381.396,1475.634,1402.945,1465.133,1408.779,1471.509z"/>
			</g>
			<g>
				<path style="fill:#97A6B7;" d="M1966.817,2769.372c-0.101,0-0.202-0.003-0.307-0.012c-1.848-0.157-3.268-1.703-3.268-3.559
					v-775.714c0-1.972,1.597-3.571,3.571-3.571c1.974,0,3.571,1.599,3.571,3.571v733.598l117.824-689.786
					c0.331-1.942,2.183-3.245,4.118-2.919c1.946,0.333,3.254,2.178,2.919,4.122l-124.914,731.3
					C1970.04,2768.13,1968.54,2769.372,1966.817,2769.372z"/>
				<path style="fill:#97A6B7;" d="M2379.971,2960.904c-1.779,0-3.302-1.318-3.536-3.104l-114.759-870.091
					c-0.258-1.957,1.116-3.751,3.072-4.007c2.002-0.269,3.749,1.121,4.007,3.072l107.648,816.175v-782.12
					c0-1.972,1.597-3.571,3.571-3.571c1.974,0,3.571,1.599,3.571,3.571v836.503c0,1.881-1.461,3.44-3.337,3.564
					C2380.128,2960.903,2380.051,2960.904,2379.971,2960.904z"/>
				<path style="fill:#97A6B7;" d="M1034.135,3091.368c-0.08,0-0.16-0.002-0.241-0.009c-1.876-0.124-3.334-1.683-3.334-3.562
					v-893.686c0-1.972,1.599-3.571,3.571-3.571c1.972,0,3.571,1.599,3.571,3.571v840.146l109.474-817.025
					c0.263-1.956,2.087-3.308,4.014-3.065c1.955,0.261,3.327,2.059,3.065,4.014l-116.584,870.091
					C1037.432,3090.055,1035.908,3091.368,1034.135,3091.368z"/>
				<path style="fill:#97A6B7;" d="M1534.821,3305.107c-1.728,0-3.229-1.25-3.519-2.983l-167.593-1003.331
					c-0.324-1.944,0.989-3.785,2.935-4.11c1.953-0.316,3.786,0.989,4.11,2.935l160.5,960.865v-863.471
					c0-1.972,1.599-3.571,3.571-3.571s3.571,1.599,3.571,3.571v906.524c0,1.857-1.425,3.405-3.276,3.559
					C1535.019,3305.104,1534.92,3305.107,1534.821,3305.107z"/>
				<g>
					
						<linearGradient id="SVGID_00000088821714459384504870000000791609844165702296_" gradientUnits="userSpaceOnUse" x1="2444.4919" y1="2376.6172" x2="1327.9248" y2="1832.969" gradientTransform="matrix(-1 0 0 1 3695.2781 0)">
						<stop  offset="0" style="stop-color:#311944"/>
						<stop  offset="1" style="stop-color:#893976"/>
					</linearGradient>
					<path style="fill:url(#SVGID_00000088821714459384504870000000791609844165702296_);" d="M1987.396,1993.322l-960.06,191.932
						v12.492l509.234,202.598l850.343-276.738c0-4.164,0-8.328,0-12.491C2253.74,2071.85,2120.568,2032.586,1987.396,1993.322z"/>
					
						<linearGradient id="SVGID_00000054968233851501902900000014648132451597086875_" gradientUnits="userSpaceOnUse" x1="3599.4126" y1="2823.54" x2="1642.4454" y2="2003.2809" gradientTransform="matrix(-1 0 0 1 3695.2781 0)">
						<stop  offset="0" style="stop-color:#311944"/>
						<stop  offset="1" style="stop-color:#893976"/>
					</linearGradient>
					<polygon style="fill:url(#SVGID_00000054968233851501902900000014648132451597086875_);" points="1987.396,1980.83 
						1027.336,2185.254 1536.57,2387.852 2386.912,2111.114 					"/>
				</g>
				<polygon style="fill:#B7C0CE;" points="1581.666,2091.492 1422.402,2116.041 1422.402,2126.885 1488.675,2158.807 
					1627.467,2123.762 				"/>
				<polygon style="fill:#D8DEE8;" points="1581.666,2080.649 1422.402,2116.041 1488.675,2147.963 1627.467,2112.918 				"/>
				<g>
					<path style="fill:#B7C0CE;" d="M1541.503,2194.198l25.45-335.831c0.403-5.314,4.951-10.27,10.983-11.965l435.605-122.45
						c3.901-1.096,11.377-0.023,14.346,1.819c2.969,1.842,6.336,1.445,6.189,4.871l-18.207,310.353
						c-0.303,5.161-4.549,10.057-10.361,11.944l-454.645,147.688L1541.503,2194.198z"/>
					<path style="fill:#FFFFFF;" d="M1550.863,2200.628l26.373-338.642c0.413-5.307,4.959-10.251,10.981-11.944l435.624-122.456
						c3.901-1.097,7.886-0.664,10.854,1.178s4.606,4.898,4.459,8.324l-13.115,307.278c-0.225,5.282-4.602,10.317-10.58,12.171
						L1550.863,2200.628z"/>
					<path style="fill:#EBEFF2;" d="M1550.863,2200.628l464.598-144.091c5.978-1.854,10.355-6.889,10.58-12.17l3.955-92.671
						c-137.918,88.005-311.576,121.988-473.205,172.81L1550.863,2200.628z"/>
					<path style="fill:#FFFFFF;" d="M1782.047,2210.94l-16.482,10.236c0,0-78.244-34.698-82.928-36.78
						c-0.744-0.331-3.961-4.336,0-5.985c20.967-8.728,100.971-29.406,100.971-29.406l41.638,19.778L1782.047,2210.94z"/>
					<path style="fill:#D8DEE8;" d="M1782.047,2204.955l-16.482,10.236c0,0-78.244-34.698-82.928-36.78
						c-4.684-2.082,100.971-35.392,100.971-35.392l41.638,19.778L1782.047,2204.955z"/>
					<path style="fill:#FFFFFF;" d="M1863.413,1945.674c0,0,39.556,211.658,43.719,223.455
						c3.844,10.892-108.186,46.217-134.975,52.915c-2.228,0.557-5.548-0.418-6.593-0.867
						c-7.634,0.694,27.932-255.551,27.932-255.551l2.602-0.521L1863.413,1945.674z"/>
					<path style="fill:#D8DEE8;" d="M1863.413,1945.674c0,0,46.495,212.352,50.659,224.149
						c4.164,11.797-129.771,49.965-141.568,52.047c-7.634,0.694,23.594-256.765,23.594-256.765L1863.413,1945.674z"/>
				</g>
			</g>
		</g>
		<g>
			
				<linearGradient id="SVGID_00000168112334836732278030000017315368087439256961_" gradientUnits="userSpaceOnUse" x1="2892.4216" y1="328.4461" x2="2122.9858" y2="1893.3109">
				<stop  offset="0" style="stop-color:#311944"/>
				<stop  offset="1" style="stop-color:#893976"/>
			</linearGradient>
			<path style="fill:url(#SVGID_00000168112334836732278030000017315368087439256961_);" d="M2785.462,1148.625
				c0-0.007,0-0.014,0-0.021l54.749,0.228c17.869,0.074,30.955-13.245,30.955-29.734V721.18c0-16.489-13.735-30.654-31.604-31.742
				l-456.89-27.804c-20.033-1.22-36.437,12.013-36.437,29.575v423.831c0,16.507,14.238,30.109,32.583,31.752
				c1.231,0.116,3.693,0.179,4.957,0.184L2785.462,1148.625z"/>
			<g>
				
					<linearGradient id="SVGID_00000041259075517045343850000011955021393452426171_" gradientUnits="userSpaceOnUse" x1="2917.4744" y1="328.3359" x2="2148.0649" y2="1893.1473">
					<stop  offset="0" style="stop-color:#FFC444"/>
					<stop  offset="0.9964" style="stop-color:#F36F56"/>
				</linearGradient>
				<path style="fill:url(#SVGID_00000041259075517045343850000011955021393452426171_);" d="M2896.162,721.18v397.918
					c0,16.489-13.55,29.808-31.419,29.734l-456.881-1.867c-20.033-0.083-36.63-14.362-36.63-31.925V691.209
					c0-17.563,17.042-30.795,37.074-29.575l456.626,27.804C2882.8,690.526,2896.162,704.691,2896.162,721.18z"/>
				<g>
					<g>
						<polygon style="opacity:0.7;fill:#FFFFFF;" points="2567.634,1005.241 2481.931,1003.399 2481.931,875.234 2567.634,878.404 
													"/>
						<polygon style="opacity:0.7;fill:#FFFFFF;" points="2685.476,1007.692 2599.773,1005.955 2599.773,817.718 2685.476,821.371 
													"/>
						<polygon style="opacity:0.7;fill:#FFFFFF;" points="2799.746,1010.174 2717.615,1008.414 2717.615,769.406 2799.746,773.581 
													"/>
					</g>
					<polygon style="opacity:0.7;fill:#FFFFFF;" points="2814.03,1063.216 2464.076,1058.126 2464.076,1029.295 2814.03,1035.576 
											"/>
				</g>
				
					<linearGradient id="SVGID_00000035507479338859967470000006072426463353298093_" gradientUnits="userSpaceOnUse" x1="2781.6917" y1="527.7478" x2="2203.1086" y2="1704.4602">
					<stop  offset="0" style="stop-color:#FFC444"/>
					<stop  offset="0.9964" style="stop-color:#F36F56"/>
				</linearGradient>
				<path style="opacity:0.3;fill:url(#SVGID_00000035507479338859967470000006072426463353298093_);" d="M2809.527,1148.625
					l-401.221-1.648c-20.033-0.083-37.074-14.374-37.074-31.937V691.209c0-17.563,17.042-30.795,37.074-29.575l66.746,4.042
					c39.408,46.4,61.97,108.885,49.785,179.094c-2.024,11.761-0.346,22.412,4.139,32.229c7.057,15.509,21.327,28.943,39.771,41.508
					c9.598,6.558,20.382,12.879,31.834,19.128c26.364,14.344,56.552,28.342,85.554,44.079c10.542,5.71,20.922,11.683,30.934,17.964
					c4.648,2.924,9.236,5.919,13.706,9.01c11.654,8.028,22.554,16.627,32.344,25.967c9.075,8.675,17.193,18.022,23.999,28.164
					C2802.921,1086.322,2811.773,1114.25,2809.527,1148.625z"/>
			</g>
		</g>
		<g>
			
				<linearGradient id="SVGID_00000033343522065863374310000000149185046912101815_" gradientUnits="userSpaceOnUse" x1="2967.0649" y1="873.7241" x2="2054.2483" y2="2730.1948">
				<stop  offset="0" style="stop-color:#311944"/>
				<stop  offset="1" style="stop-color:#893976"/>
			</linearGradient>
			<path style="fill:url(#SVGID_00000033343522065863374310000000149185046912101815_);" d="M2881.773,1291.159l-498.952-7.138
				c-21.771-0.312-40.156,16.139-40.156,36.792v498.409c0,20.653,18.178,36.394,39.949,35.469l408.913-17.597h0.108l90.097-3.557
				c19.585-0.832,35.855-17.033,35.855-36.513v-470.09C2917.588,1307.455,2901.358,1291.439,2881.773,1291.159z"/>
			<g>
				
					<linearGradient id="SVGID_00000124873344462598991240000009581828108818151073_" gradientUnits="userSpaceOnUse" x1="2378.3735" y1="1569.4978" x2="2949.7266" y2="1569.4978">
					<stop  offset="0" style="stop-color:#FF9085"/>
					<stop  offset="1" style="stop-color:#FB6FBB"/>
				</linearGradient>
				<path style="fill:url(#SVGID_00000124873344462598991240000009581828108818151073_);" d="M2949.727,1326.934v470.09
					c0,19.479-15.427,35.928-35.011,36.76l-497.576,21.155c-21.772,0.925-38.766-15.065-38.766-35.718v-498.409
					c0-20.653,17.182-37.103,38.954-36.792l497.658,7.138C2934.57,1291.439,2949.727,1307.455,2949.727,1326.934z"/>
				<path style="opacity:0.7;fill:#FFFFFF;" d="M2850.997,1520.69c0-28.085-11.083-54.462-31.24-74.307
					c-20.21-19.899-47.27-30.946-76.169-30.983c-26.727-0.034-52.112,9.319-72.181,26.521c-19.9-16.244-44.968-25.121-71.427-25.151
					c-28.793-0.032-56.062,10.353-77.157,29.386c-0.866,0.769-1.701,1.538-2.535,2.339c-43.26,41.479-44.847,107.748-3.628,150.226
					l104.278,99.13c13.411,12.595,31.225,19.234,50.096,18.678c18.767-0.553,36.381-8.183,49.587-21.411l98.954-99.334
					c0.061-0.09,0.121-0.151,0.181-0.212c0.363-0.334,0.694-0.697,1.028-1.03l3.349-3.392l-0.121-0.087
					C2841.477,1571.479,2850.997,1546.726,2850.997,1520.69z M2782.324,1579.299l-51.604,0.807
					c-1.508,0.023-2.953-3.081-4.154-3.905l-21.995-16.302l-15.081,23.447l-40.016,62.195c-1.345,2.122-3.691,2.78-6.164,2.836
					c-0.657,0.015-3.411-0.075-4.069-0.242c-3.133-0.81-7.331-3.538-7.331-6.695v-123.331l-16.281,28.532l-13.212,22.458
					c-1.326,2.12-2.735,3.912-5.261,3.949l-92.093,1.357c-4.122,0.061-7.417-3.614-7.417-7.584c0-3.97,3.43-7.739,7.552-7.793
					l88.184-1.161l11.415-17.81l32.306-50.472c1.723-2.681,4.676-3.927,7.775-3.096c3.159,0.86,4.887,3.623,4.887,6.775v123.314
					l26.031-40.137l20.372-31.535c1.052-1.672,2.871-2.842,4.822-3.227c1.948-0.415,4.031,2.182,5.638,3.277l26.343,20.088
					l49.34-0.696c3.924-0.055,7.09,3.515,7.09,7.369C2789.403,1575.573,2786.248,1579.238,2782.324,1579.299z"/>
				
					<linearGradient id="SVGID_00000127027516697737991240000012668183582776832407_" gradientUnits="userSpaceOnUse" x1="2834.2805" y1="1102.4122" x2="2144.2805" y2="2505.7219">
					<stop  offset="0" style="stop-color:#FF9085"/>
					<stop  offset="1" style="stop-color:#FB6FBB"/>
				</linearGradient>
				<path style="opacity:0.3;fill:url(#SVGID_00000127027516697737991240000012668183582776832407_);" d="M2825.461,1837.593
					l-408.133,17.347c-21.772,0.925-38.954-15.065-38.954-35.718v-498.409c0-20.653,17.182-37.103,38.954-36.792l88.695,1.284
					c18.987,43.244,26.77,94.027,17.894,149.669c-0.609,3.838-0.996,7.586-1.028,11.178c-0.321,40.711,34.97,68.127,81.953,93.902
					c4.007,2.207,8.087,4.38,12.243,6.582c5.789,3,11.718,6.025,17.712,9.075c5.172,2.603,10.396,5.202,15.652,7.828
					c8.495,4.213,17.068,8.508,25.691,12.885c4.476,2.258,8.915,4.576,13.353,6.921c30.977,16.238,61.361,34.18,86.317,56.373
					C2824.284,1682.808,2852.586,1742.168,2825.461,1837.593z"/>
			</g>
		</g>
		<g>
			
				<linearGradient id="SVGID_00000109741556291791705730000007087179095747244978_" gradientUnits="userSpaceOnUse" x1="2946.6726" y1="1624.7542" x2="2127.5713" y2="3290.6277">
				<stop  offset="0" style="stop-color:#311944"/>
				<stop  offset="1" style="stop-color:#893976"/>
			</linearGradient>
			<path style="fill:url(#SVGID_00000109741556291791705730000007087179095747244978_);" d="M2864.172,1997.605l-436.618,26.104
				c-19.11,1.142-34.897,16.209-34.897,33.659v421.125c0,16.366,13.235,28.221,30.69,27.793c1.185-0.026,2.211-0.106,3.428-0.248
				l373.838-43.583c0.001-0.006-0.04-0.012-0.039-0.018l63.619-7.279c17.123-1.995,31.968-16.909,31.968-33.333v-396.357
				C2896.162,2009.044,2881.295,1996.582,2864.172,1997.605z"/>
			<g>
				
					<linearGradient id="SVGID_00000097469238972560059930000002839967702689290652_" gradientUnits="userSpaceOnUse" x1="3198.3628" y1="1538.2117" x2="1826.1909" y2="3358.5503">
					<stop  offset="0" style="stop-color:#AA80F9"/>
					<stop  offset="0.9964" style="stop-color:#6165D7"/>
				</linearGradient>
				<path style="fill:url(#SVGID_00000097469238972560059930000002839967702689290652_);" d="M2921.159,2025.469v396.357
					c0,16.424-13.655,31.338-30.778,33.334l-437.312,50.879c-19.111,2.227-35.415-10.095-35.415-27.546v-421.125
					c0-17.45,16.396-32.517,35.507-33.659l436.79-26.104C2907.074,1996.582,2921.159,2009.045,2921.159,2025.469z"/>
				<g style="opacity:0.7;">
					<path style="fill:#FFFFFF;" d="M2599.894,2154.118c-17.685,1.352-32.26,15.773-32.26,32.2v134.494
						c0,16.427,14.575,28.309,32.26,26.548c17.61-1.753,32.017-16.387,32.017-32.689v-133.471
						C2631.911,2164.896,2617.504,2152.773,2599.894,2154.118z"/>
					<path style="fill:#FFFFFF;" d="M2535.678,2187.485l0.262,0.03c-12.39,0.989-21.87,11.052-21.87,22.469v33.988l-5.01,0.523
						c-7.652,0.66-12.845,6.894-12.845,13.918v0.652c0,7.024,5.193,12.161,12.845,11.477l5.01-0.542v36.591
						c0,11.417,10.029,19.702,22.419,18.51l-0.79-0.034c12.353-1.188,21.223-11.357,21.223-22.714v-96.093
						C2556.921,2194.904,2548.031,2186.499,2535.678,2187.485z"/>
					<path style="fill:#FFFFFF;" d="M2758.797,2142.042c-17.02,1.301-30.47,15.416-30.47,31.531v131.939
						c0,16.115,13.45,27.803,30.47,26.108c16.949-1.688,30.236-16.013,30.236-32.007v-130.947
						C2789.033,2152.672,2775.746,2140.746,2758.797,2142.042z"/>
					<path style="fill:#FFFFFF;" d="M2842.58,2215.486l-3.553,0.493V2183.3c0-10.977-9.622-19.139-21.163-18.218l-0.505,0.021
						c-11.575,0.924-21.183,10.617-21.183,21.652v93.374c0,11.035,9.462,19.075,21.038,17.961l0.624-0.025
						c11.542-1.11,21.19-10.902,21.19-21.879v-35.181l3.553-0.509c7.043-0.629,10.731-6.601,10.731-13.325v-0.624
						C2853.311,2219.823,2849.623,2214.878,2842.58,2215.486z"/>
					<polygon style="fill:#FFFFFF;" points="2639.053,2266.439 2721.185,2259.058 2721.185,2220.974 2639.053,2227.976 					"/>
				</g>
				
					<linearGradient id="SVGID_00000082370021977472390950000016823739025739405440_" gradientUnits="userSpaceOnUse" x1="2822.1013" y1="1851.2522" x2="2218.2996" y2="3079.2539">
					<stop  offset="0" style="stop-color:#AA80F9"/>
					<stop  offset="0.9964" style="stop-color:#6165D7"/>
				</linearGradient>
				<path style="opacity:0.3;fill:url(#SVGID_00000082370021977472390950000016823739025739405440_);" d="M2827.947,2462.456
					l-374.786,43.583c-19.111,2.227-35.507-10.095-35.507-27.546v-421.125c0-17.45,16.396-32.517,35.507-33.659l95.386-5.677
					c16.586,35.226,23.713,77.509,15.96,124.977c-2.046,12.6-0.117,23.535,4.756,33.215c10.119,20.122,33.39,34.821,62.109,48.214
					c2.701,1.258,5.511,2.508,8.29,3.757c23.407,10.369,49.713,20.183,75.246,31.461c3.997,1.772,7.971,3.571,11.906,5.395
					c22.302,10.417,43.608,22.249,61.403,36.914C2828.26,2334.971,2850.934,2382.637,2827.947,2462.456z"/>
			</g>
		</g>
		<g>
			
				<linearGradient id="SVGID_00000125567210911430788040000017075927175899338921_" gradientUnits="userSpaceOnUse" x1="1687.2386" y1="1155.6884" x2="1092.9874" y2="987.5277">
				<stop  offset="0" style="stop-color:#311944"/>
				<stop  offset="1" style="stop-color:#A03976"/>
			</linearGradient>
			<path style="fill:url(#SVGID_00000125567210911430788040000017075927175899338921_);" d="M1227.912,1112.869
				c19.031,9.662,42.94,0.79,53.403-19.816s3.516-45.145-15.515-54.807c-0.986-0.501-1.992-0.921-3.001-1.324
				c3.536-11.402,6.202-22.894,7.989-34.39c1.091-0.003,2.185-0.022,3.298-0.121c21.713-1.935,38.945-21.887,38.491-44.565
				c-0.454-22.677-18.425-39.493-40.137-37.557c-1.135,0.102-2.25,0.281-3.358,0.478c-2.268-11.238-5.376-22.216-9.296-32.841
				c0.999-0.585,1.992-1.188,2.964-1.869c18.576-13.014,24.515-38.701,13.265-57.372c-11.25-18.671-35.43-23.257-54.006-10.243
				c-0.952,0.668-1.847,1.387-2.732,2.119c-7.338-8.111-15.384-15.628-24.091-22.488c0.612-1.004,1.211-2.021,1.753-3.088
				c10.462-20.607,24.134-43.117,4.954-52.48c-44.37-21.66-63.409-3.118-73.872,17.489c-0.542,1.067-1.009,2.151-1.458,3.238
				c-10.676-2.981-21.493-5.042-32.371-6.18c0.069-1.146,0.121-2.294,0.098-3.456c-0.455-22.677,6.273-34.949-15.521-35.372
				c-47.526-0.924-63.562,19.705-63.107,42.381c0.024,1.185,0.123,2.344,0.24,3.495c-10.891,3.105-21.588,7.074-31.999,11.875
				c-0.495-1.012-1.008-2.017-1.596-2.994c-11.25-18.671-35.429-23.256-54.006-10.241c-18.576,13.015-24.515,38.701-13.265,57.372
				c0.576,0.957,1.208,1.851,1.849,2.734c-8.226,8.228-15.931,17.161-23.049,26.744c-0.921-0.578-1.854-1.142-2.84-1.642
				c-19.031-9.662-42.94-0.791-53.403,19.816c-10.463,20.607-3.516,45.145,15.515,54.807c0.986,0.501,1.992,0.921,3.002,1.324
				c-3.536,11.402-6.202,22.894-7.99,34.39c-1.091,0.003-2.186,0.021-3.297,0.119c-21.714,1.937-38.946,21.888-38.491,44.566
				c0.455,22.678,18.425,39.492,40.138,37.556c1.134-0.101,2.249-0.28,3.357-0.477c2.268,11.238,5.375,22.216,9.296,32.841
				c-0.998,0.585-1.993,1.188-2.963,1.868c-18.576,13.014-24.515,38.701-13.265,57.372c11.25,18.672,48.495,27.346,67.071,14.331
				c0.952-0.667-11.219-5.476-10.334-6.207c7.338,8.111,15.384,15.628,24.091,22.487c-0.611,1.004-1.211,2.02-1.753,3.088
				c-10.463,20.607-3.516,45.145,15.515,54.807c19.031,9.662,42.94,0.791,53.403-19.816c0.542-1.068,1.009-2.152,1.458-3.238
				c10.676,2.981,21.493,5.042,32.371,6.179c-0.068,1.146-0.121,2.294-0.098,3.456c0.455,22.677,18.425,39.492,40.138,37.556
				c21.713-1.935,38.946-21.888,38.491-44.565c-0.024-1.185-0.123-2.344-0.24-3.495c10.892-3.105,21.588-7.074,31.999-11.875
				c0.495,1.011,1.008,2.017,1.596,2.992c11.25,18.671,35.429,23.257,54.005,10.242c18.577-13.015,24.515-38.701,13.266-57.373
				c-0.576-0.956-1.208-1.85-1.849-2.733c8.226-8.227,15.93-17.161,23.049-26.744
				C1225.993,1111.804,1226.926,1112.368,1227.912,1112.869z M990.671,1115.879c-69.098-35.083-94.318-124.175-56.33-198.993
				c37.987-74.819,124.796-107.031,193.894-71.949c69.098,35.082,94.318,124.174,56.331,198.993
				C1146.578,1118.749,1059.769,1150.961,990.671,1115.879z"/>
			
				<linearGradient id="SVGID_00000105400392793547552350000002658930052764027010_" gradientUnits="userSpaceOnUse" x1="1685.6809" y1="1161.1921" x2="1091.4281" y2="993.0309">
				<stop  offset="0" style="stop-color:#311944"/>
				<stop  offset="1" style="stop-color:#A03976"/>
			</linearGradient>
			<path style="fill:url(#SVGID_00000105400392793547552350000002658930052764027010_);" d="M1274.085,1002.411
				c21.713-1.936,38.945-21.888,38.491-44.565c-0.454-22.677-18.425-39.493-40.137-37.557c-1.135,0.101-2.25,0.281-3.358,0.477
				c-2.267-11.239-5.376-22.216-9.296-32.841c0.999-0.584,1.992-1.188,2.964-1.869c18.576-13.014,41.558-44.461,28.452-61.879
				c-24.874-33.059-50.617-18.749-69.193-5.735c-0.952,0.668-1.847,1.387-2.732,2.118c-7.338-8.111-15.385-15.627-24.091-22.487
				c0.612-1.004,1.211-2.02,1.753-3.087c5.694-11.215,6.197-23.58,2.436-34.093c-17.942,31.58-35.643,63.292-53.027,95.177
				c55.124,40.394,72.673,119.996,38.218,187.861c-29.198,57.509-87.239,89.801-143.912,85.755
				c-2.528,6.556-5.01,13.148-7.718,19.641c-7.346,17.62-15.692,34.878-24.049,52.113c5.256,0.991,10.534,1.771,15.827,2.325
				c-0.068,1.146-0.121,2.294-0.098,3.456c0.455,22.677,14.223,41.945,53.574,39.857c21.768-1.154,25.509-24.189,25.054-46.866
				c-0.024-1.185-0.122-2.344-0.24-3.495c10.891-3.105,21.588-7.074,31.999-11.875c0.495,1.012,1.008,2.017,1.597,2.993
				c11.25,18.672,50.278,26.605,68.854,13.59c18.577-13.016,9.666-42.048-1.583-60.72c-0.576-0.957-1.208-1.851-1.849-2.734
				c8.226-8.227,15.93-17.161,23.049-26.743c0.921,0.578,1.854,1.142,2.84,1.641c19.031,9.664,42.94,0.791,53.403-19.816
				c10.462-20.606,3.516-45.145-15.515-54.807c-0.986-0.501-1.993-0.921-3.002-1.324c3.536-11.402,6.202-22.895,7.989-34.389
				C1271.879,1002.528,1272.973,1002.509,1274.085,1002.411z"/>
			
				<linearGradient id="SVGID_00000096778906262469410960000014289060257896540054_" gradientUnits="userSpaceOnUse" x1="1077.4132" y1="780.1537" x2="1086.7061" y2="1530.5618">
				<stop  offset="0" style="stop-color:#FF9085"/>
				<stop  offset="1" style="stop-color:#FB6FBB"/>
			</linearGradient>
			<path style="fill:url(#SVGID_00000096778906262469410960000014289060257896540054_);" d="M1248.381,1115.197
				c19.031,9.662,42.94,0.79,53.403-19.817c10.463-20.606,3.517-45.144-15.515-54.807c-0.986-0.501-1.992-0.921-3.001-1.324
				c3.536-11.403,6.202-22.894,7.99-34.391c1.091-0.003,2.185-0.021,3.298-0.12c21.713-1.935,38.945-21.887,38.491-44.565
				c-0.455-22.678-18.425-39.493-40.137-37.557c-1.135,0.102-2.249,0.281-3.358,0.478c-2.268-11.239-5.375-22.216-9.296-32.841
				c0.999-0.585,1.993-1.189,2.964-1.869c18.576-13.014,24.515-38.701,13.265-57.372c-11.25-18.671-35.429-23.257-54.005-10.242
				c-0.952,0.667-1.848,1.387-2.733,2.118c-7.337-8.111-15.384-15.627-24.091-22.487c0.612-1.004,1.211-2.021,1.753-3.088
				c10.463-20.607,3.516-45.145-15.514-54.807c-19.031-9.663-42.941-0.79-53.403,19.816c-0.542,1.067-1.01,2.152-1.459,3.238
				c-10.676-2.981-21.492-5.042-32.37-6.18c0.068-1.146,0.12-2.293,0.098-3.456c-0.455-22.677-18.425-39.492-40.138-37.556
				c-21.713,1.935-38.945,21.888-38.49,44.564c0.024,1.186,0.122,2.344,0.24,3.495c-10.891,3.105-21.587,7.074-31.999,11.875
				c-0.495-1.011-1.008-2.016-1.595-2.993c-11.25-18.671-35.43-23.257-54.006-10.242c-18.577,13.016-24.515,38.702-13.265,57.373
				c0.576,0.956,1.208,1.851,1.849,2.734c-8.226,8.227-15.931,17.161-23.05,26.744c-0.92-0.578-1.854-1.142-2.84-1.642
				c-19.031-9.663-42.94-0.79-53.402,19.816c-10.463,20.607-3.517,45.145,15.514,54.807c0.986,0.501,1.993,0.921,3.002,1.324
				c-3.536,11.403-6.202,22.894-7.989,34.39c-1.091,0.003-2.186,0.022-3.298,0.12c-21.713,1.937-38.946,21.888-38.491,44.566
				c0.455,22.677,18.425,39.491,40.138,37.556c1.134-0.101,2.249-0.28,3.357-0.477c2.268,11.239,5.376,22.216,9.296,32.841
				c-0.998,0.584-1.992,1.188-2.963,1.869c-18.576,13.014-24.515,38.701-13.265,57.372c11.25,18.672,35.43,23.256,54.005,10.243
				c0.952-0.668,1.848-1.388,2.733-2.119c7.337,8.111,15.384,15.628,24.091,22.488c-0.612,1.004-1.212,2.02-1.753,3.088
				c-10.463,20.607-3.516,45.145,15.515,54.807c19.031,9.662,42.94,0.79,53.403-19.817c0.542-1.067,1.009-2.151,1.458-3.237
				c10.677,2.981,21.493,5.042,32.371,6.179c-0.068,1.146-0.121,2.294-0.098,3.456c0.455,22.676,18.425,39.492,40.138,37.556
				c21.712-1.936,38.946-21.888,38.49-44.565c-0.023-1.185-0.123-2.344-0.24-3.495c10.892-3.104,21.588-7.074,31.999-11.874
				c0.495,1.011,1.009,2.017,1.597,2.992c11.25,18.671,35.428,23.258,54.005,10.243c18.576-13.016,24.515-38.701,13.266-57.374
				c-0.577-0.956-1.208-1.85-1.85-2.733c8.226-8.227,15.931-17.161,23.05-26.744
				C1246.461,1114.131,1247.395,1114.696,1248.381,1115.197z M1011.141,1118.207c-69.098-35.083-94.318-124.174-56.331-198.993
				c37.987-74.818,124.796-107.031,193.893-71.948c69.098,35.083,94.318,124.174,56.331,198.993
				C1167.047,1121.077,1080.238,1153.289,1011.141,1118.207z"/>
		</g>
		<g>
			
				<linearGradient id="SVGID_00000003078012172292650120000000250521296846290316_" gradientUnits="userSpaceOnUse" x1="1275.2151" y1="1583.9008" x2="824.012" y2="1456.2196">
				<stop  offset="0" style="stop-color:#311944"/>
				<stop  offset="1" style="stop-color:#A03976"/>
			</linearGradient>
			<path style="fill:url(#SVGID_00000003078012172292650120000000250521296846290316_);" d="M926.458,1551.389
				c14.45,7.336,32.604,0.6,40.548-15.046c7.944-15.646,2.67-34.278-11.78-41.614c-0.749-0.38-1.513-0.7-2.279-1.005
				c2.685-8.658,4.709-17.383,6.066-26.112c0.828-0.002,1.659-0.016,2.504-0.092c16.486-1.47,29.57-16.618,29.225-33.837
				c-0.345-17.219-13.99-29.986-30.475-28.516c-0.862,0.077-1.708,0.213-2.55,0.363c-1.722-8.533-4.082-16.868-7.058-24.936
				c0.758-0.444,1.513-0.902,2.25-1.419c14.104-9.881,18.614-29.385,10.072-43.561c-8.542-14.177-26.901-17.658-41.005-7.777
				c-0.723,0.507-1.403,1.053-2.075,1.609c-5.571-6.159-11.681-11.866-18.292-17.075c0.464-0.762,0.92-1.534,1.331-2.344
				c7.944-15.646,18.325-32.738,3.762-39.847c-33.689-16.446-48.145-2.368-56.09,13.279c-0.411,0.811-0.766,1.634-1.107,2.458
				c-8.106-2.263-16.319-3.828-24.579-4.692c0.052-0.87,0.092-1.742,0.074-2.624c-0.346-17.218,4.763-26.536-11.785-26.858
				c-36.086-0.702-48.262,14.961-47.916,32.179c0.018,0.9,0.093,1.78,0.182,2.654c-8.27,2.357-16.391,5.371-24.296,9.016
				c-0.376-0.768-0.766-1.531-1.212-2.273c-8.542-14.177-26.901-17.658-41.006-7.776c-14.105,9.882-18.614,29.385-10.072,43.562
				c0.437,0.727,0.917,1.406,1.404,2.076c-6.246,6.247-12.096,13.03-17.501,20.306c-0.699-0.439-1.408-0.867-2.157-1.247
				c-14.45-7.336-32.604-0.6-40.548,15.046c-7.944,15.646-2.67,34.278,11.78,41.614c0.749,0.38,1.513,0.7,2.279,1.005
				c-2.685,8.658-4.709,17.383-6.066,26.112c-0.828,0.002-1.66,0.016-2.503,0.091c-16.487,1.471-29.571,16.62-29.226,33.838
				c0.345,17.219,13.99,29.985,30.476,28.516c0.861-0.077,1.708-0.212,2.549-0.362c1.722,8.533,4.081,16.868,7.058,24.936
				c-0.758,0.444-1.513,0.902-2.25,1.419c-14.104,9.881-18.614,29.385-10.072,43.562c8.542,14.177,36.822,20.763,50.926,10.881
				c0.723-0.506-8.518-4.158-7.846-4.713c5.571,6.158,11.681,11.866,18.292,17.074c-0.464,0.762-0.92,1.534-1.331,2.345
				c-7.944,15.646-2.67,34.277,11.78,41.614s32.604,0.6,40.548-15.046c0.411-0.811,0.766-1.634,1.107-2.458
				c8.106,2.263,16.319,3.828,24.578,4.692c-0.052,0.87-0.092,1.741-0.074,2.624c0.345,17.218,13.99,29.985,30.476,28.515
				c16.486-1.47,29.571-16.619,29.225-33.837c-0.018-0.9-0.093-1.78-0.182-2.654c8.27-2.357,16.391-5.371,24.297-9.016
				c0.375,0.768,0.766,1.531,1.212,2.272c8.542,14.176,26.9,17.659,41.005,7.777c14.105-9.882,18.614-29.385,10.072-43.562
				c-0.438-0.726-0.917-1.405-1.404-2.075c6.246-6.247,12.096-13.03,17.501-20.306C925,1550.58,925.709,1551.009,926.458,1551.389z
				 M746.325,1553.674c-52.464-26.637-71.614-94.283-42.771-151.091c28.843-56.809,94.755-81.267,147.22-54.629
				c52.464,26.637,71.613,94.283,42.771,151.091C864.702,1555.854,798.79,1580.312,746.325,1553.674z"/>
			
				<linearGradient id="SVGID_00000124854008773788092480000006240276156259647928_" gradientUnits="userSpaceOnUse" x1="1274.0322" y1="1588.0795" x2="822.8281" y2="1460.3982">
				<stop  offset="0" style="stop-color:#311944"/>
				<stop  offset="1" style="stop-color:#A03976"/>
			</linearGradient>
			<path style="fill:url(#SVGID_00000124854008773788092480000006240276156259647928_);" d="M961.516,1467.52
				c16.486-1.47,29.57-16.619,29.225-33.838c-0.345-17.218-13.99-29.986-30.475-28.516c-0.862,0.077-1.708,0.213-2.55,0.363
				c-1.722-8.533-4.082-16.868-7.058-24.936c0.758-0.443,1.513-0.902,2.25-1.419c14.104-9.881,31.554-33.758,21.603-46.984
				c-18.887-25.101-38.432-14.236-52.537-4.355c-0.723,0.507-1.403,1.053-2.074,1.608c-5.572-6.158-11.681-11.865-18.292-17.074
				c0.464-0.762,0.92-1.534,1.331-2.344c4.323-8.516,4.705-17.904,1.849-25.886c-13.623,23.978-27.063,48.057-40.262,72.266
				c41.854,30.67,55.179,91.111,29.018,142.639c-22.17,43.666-66.239,68.184-109.269,65.112c-1.92,4.978-3.804,9.983-5.86,14.913
				c-5.578,13.379-11.914,26.482-18.26,39.568c3.99,0.752,7.998,1.344,12.017,1.765c-0.052,0.87-0.092,1.742-0.074,2.624
				c0.345,17.218,10.799,31.848,40.677,30.262c16.528-0.876,19.369-18.366,19.023-35.584c-0.018-0.899-0.093-1.779-0.182-2.653
				c8.27-2.357,16.391-5.371,24.296-9.017c0.375,0.768,0.766,1.531,1.212,2.272c8.542,14.177,38.175,20.201,52.28,10.319
				c14.105-9.882,7.339-31.927-1.202-46.104c-0.438-0.726-0.917-1.405-1.404-2.076c6.246-6.247,12.096-13.03,17.501-20.306
				c0.699,0.439,1.408,0.867,2.157,1.246c14.45,7.337,32.604,0.6,40.548-15.046c7.944-15.645,2.67-34.277-11.78-41.614
				c-0.749-0.38-1.513-0.699-2.279-1.005c2.685-8.658,4.709-17.384,6.066-26.111C959.841,1467.609,960.672,1467.595,961.516,1467.52
				z"/>
			
				<linearGradient id="SVGID_00000022561833420476464240000008070779542931003553_" gradientUnits="userSpaceOnUse" x1="812.1868" y1="1298.7648" x2="819.2427" y2="1868.5345">
				<stop  offset="0" style="stop-color:#FF9085"/>
				<stop  offset="1" style="stop-color:#FB6FBB"/>
			</linearGradient>
			<path style="fill:url(#SVGID_00000022561833420476464240000008070779542931003553_);" d="M941.999,1553.156
				c14.45,7.336,32.604,0.6,40.548-15.046c7.944-15.646,2.67-34.277-11.78-41.614c-0.748-0.38-1.512-0.7-2.279-1.005
				c2.685-8.658,4.709-17.383,6.066-26.112c0.828-0.002,1.659-0.016,2.504-0.091c16.486-1.47,29.57-16.619,29.225-33.837
				c-0.345-17.219-13.99-29.986-30.476-28.516c-0.862,0.077-1.708,0.213-2.55,0.363c-1.722-8.533-4.081-16.869-7.058-24.936
				c0.758-0.444,1.513-0.902,2.25-1.419c14.104-9.881,18.614-29.385,10.072-43.562c-8.542-14.177-26.901-17.659-41.005-7.777
				c-0.723,0.506-1.403,1.053-2.075,1.608c-5.571-6.159-11.681-11.865-18.292-17.074c0.465-0.762,0.92-1.534,1.331-2.344
				c7.944-15.646,2.67-34.277-11.78-41.614c-14.45-7.337-32.604-0.6-40.548,15.046c-0.411,0.81-0.766,1.634-1.107,2.458
				c-8.106-2.263-16.319-3.828-24.578-4.692c0.051-0.87,0.091-1.741,0.074-2.624c-0.346-17.218-13.99-29.985-30.476-28.516
				c-16.486,1.469-29.57,16.619-29.225,33.837c0.018,0.9,0.093,1.78,0.182,2.654c-8.27,2.358-16.391,5.371-24.296,9.016
				c-0.376-0.768-0.765-1.531-1.211-2.273c-8.542-14.176-26.901-17.658-41.006-7.776c-14.105,9.883-18.614,29.385-10.072,43.562
				c0.438,0.726,0.917,1.406,1.404,2.076c-6.246,6.247-12.096,13.03-17.501,20.306c-0.699-0.438-1.407-0.867-2.157-1.247
				c-14.45-7.337-32.603-0.6-40.547,15.046c-7.944,15.646-2.67,34.278,11.78,41.614c0.749,0.38,1.513,0.699,2.279,1.005
				c-2.685,8.658-4.709,17.383-6.066,26.112c-0.828,0.002-1.66,0.016-2.504,0.091c-16.486,1.471-29.571,16.619-29.225,33.838
				c0.345,17.218,13.99,29.985,30.476,28.515c0.861-0.076,1.708-0.212,2.549-0.362c1.722,8.533,4.082,16.868,7.059,24.936
				c-0.758,0.443-1.513,0.902-2.25,1.419c-14.104,9.881-18.614,29.385-10.072,43.562c8.542,14.177,26.901,17.658,41.005,7.777
				c0.723-0.507,1.403-1.054,2.075-1.609c5.571,6.158,11.681,11.866,18.292,17.074c-0.464,0.762-0.92,1.534-1.331,2.344
				c-7.944,15.646-2.67,34.278,11.78,41.614c14.45,7.336,32.604,0.6,40.548-15.046c0.412-0.81,0.766-1.633,1.107-2.458
				c8.106,2.264,16.319,3.828,24.579,4.692c-0.051,0.87-0.092,1.741-0.074,2.624c0.346,17.218,13.99,29.985,30.476,28.516
				c16.486-1.47,29.571-16.619,29.225-33.837c-0.018-0.9-0.093-1.78-0.182-2.654c8.27-2.357,16.391-5.371,24.296-9.016
				c0.376,0.768,0.766,1.531,1.212,2.271c8.542,14.177,26.9,17.659,41.005,7.777c14.105-9.882,18.614-29.385,10.073-43.563
				c-0.438-0.726-0.917-1.405-1.405-2.075c6.246-6.246,12.096-13.03,17.502-20.306
				C940.542,1552.347,941.25,1552.776,941.999,1553.156z M761.867,1555.441c-52.464-26.637-71.614-94.283-42.771-151.091
				c28.843-56.808,94.755-81.266,147.219-54.629c52.464,26.637,71.614,94.283,42.771,151.091
				C880.244,1557.621,814.332,1582.079,761.867,1555.441z"/>
		</g>
	</g>
</g>
</svg>
